<?xml version="1.0" encoding="UTF-8"?>
<svg id="Capa_1" data-name="Capa 1" xmlns="http://www.w3.org/2000/svg" viewBox="0 0 1920 1080">
  <defs>
    <style>
      .cls-1 {
        letter-spacing: 0em;
      }

      .cls-2 {
        letter-spacing: 0em;
      }

      .cls-3 {
        letter-spacing: 0em;
      }

      .cls-4 {
        letter-spacing: 0em;
      }

      .cls-5 {
        letter-spacing: -.05em;
      }

      .cls-6 {
        letter-spacing: 0em;
      }

      .cls-7 {
        letter-spacing: 0em;
      }

      .cls-8 {
        fill: #fff;
        font-family: CormorantGaramond-SemiBold, 'Cormorant Garamond';
        font-size: 186px;
        font-weight: 600;
        stroke: #f2e6d8;
      }

      .cls-8, .cls-9 {
        stroke-miterlimit: 10;
      }

      .cls-10 {
        letter-spacing: 0em;
      }

      .cls-11 {
        fill: #d4af37;
        font-family: PlayfairDisplay-Regular, 'Playfair Display';
        font-size: 90px;
      }

      .cls-12, .cls-13 {
        fill: #f2e6d8;
      }

      .cls-9 {
        fill: none;
        stroke: #d4af37;
        stroke-width: 10px;
      }

      .cls-14 {
        letter-spacing: -.07em;
      }

      .cls-15 {
        letter-spacing: 0em;
      }

      .cls-13 {
        font-family: CormorantGaramond-Medium, 'Cormorant Garamond';
        font-size: 215.06px;
        font-weight: 500;
      }
    </style>
  </defs>
  <path class="cls-9" d="M1124.2,424.37c.19,42.07-52.44,162.45-165.56,162.45-91.43,0-165.56-72.73-165.56-162.45,0-102.24,100.19-155.61,165.56-162.45,37.94-3.97,97.2,4.28,110.18,34.69,8.96,20.98-7.88,43.74,8.25,62.44,10.29,11.93,22.08,8.37,34.17,21.97,12.83,14.43,12.92,33.45,12.96,43.36Z"/>
  <text class="cls-13" transform="translate(810.26 467.89) scale(1.02 1)"><tspan x="0" y="0">C</tspan></text>
  <text class="cls-13" transform="translate(949.39 493.22) scale(1.02 1)"><tspan x="0" y="0">R</tspan></text>
  <path class="cls-12" d="M831.97,487.38c45.27,88.75,166.41,88.56,211.73,0-3.12,10.95-8.41,21.33-15.11,30.76-13.61,18.96-33.6,33.33-55.89,40.51-57.18,19.03-123.14-13.18-140.73-71.27h0Z"/>
  <path class="cls-9" d="M874.23,399.37c2.27-1.24,6.24-3.82,9.76-8.74,3.84-5.35,5.24-10.78,5.79-13.63-.07,1.64-.13,7.44,3.48,12.75,4.65,6.87,11.68,7.41,12.74,7.48-2.19.82-6.5,2.81-10.43,7.48-3.5,4.17-5.09,8.55-5.79,10.99-.2-1.52-1.14-7.4-5.79-11.87-3.96-3.8-8.27-4.35-9.76-4.46Z"/>
  <g>
    <path class="cls-9" d="M812.53,592.02c-36.14,1.93-72.27,3.85-108.41,5.78-4.91-1.13-18.89-5.01-30.05-17.92-8.82-10.21-11.47-20.96-12.37-26.01-.2-92.31-.39-184.61-.59-276.92,1.44-4.23,5.4-13.92,15.32-21.97,11.76-9.53,24.51-10.76,28.87-10.98h130.38c9-2.58,21.95-7.74,32.24-19.08,12.98-14.3,8.58-23.96,18.26-34.69,5.89-6.52,14.61-10.8,85.43-10.41,45.49.26,52.97,2.09,60.1,8.09,11.26,9.49,10.7,20.22,26.51,35.84,9.9,9.79,20.29,15.63,27.69,19.08,41.63,1.54,83.27,3.08,124.9,4.62,3.53-.19,16.67-.47,28.87,8.67,10.61,7.96,14.24,18.35,15.32,21.97,1.33,89.3,2.67,178.59,4,267.89-.25,5.12-1.53,17.18-9.89,29.26-9.52,13.75-22.4,19.11-27.1,20.81-40.06-1.16-80.13-2.31-120.19-3.47"/>
    <path class="cls-9" d="M723.35,239.95c-.48-3.51-.46-8.16,2.36-11.56,4-4.82,10.32-3.14,29.46-3.47,18.54-.32,24.66-2.11,28.28,2.31,2.99,3.66,2.26,9.1,1.35,12.72"/>
  </g>
  <text class="cls-11" transform="translate(421 887.43)"><tspan x="0" y="0">PR</tspan><tspan class="cls-3" x="110.97" y="0">O</tspan><tspan class="cls-10" x="176.94" y="0">D</tspan><tspan class="cls-1" x="241.38" y="0">U</tspan><tspan x="302.22" y="0">CC</tspan><tspan class="cls-6" x="426.06" y="0">IÓ</tspan><tspan class="cls-7" x="521.82" y="0">N MU</tspan><tspan class="cls-14" x="747.53" y="0">L</tspan><tspan x="794.15" y="0">TIME</tspan><tspan class="cls-4" x="1013.75" y="0">D</tspan><tspan class="cls-15" x="1078.01" y="0">IA</tspan></text>
  <text class="cls-8" transform="translate(96.91 769.54)"><tspan x="0" y="0">CA</tspan><tspan class="cls-5" x="259.28" y="0">R</tspan><tspan class="cls-2" x="378.88" y="0">OLAIN RINCON</tspan></text>
</svg>